<?xml version="1.0" encoding="utf-8"?>
<!-- Generator: Adobe Illustrator 28.1.0, SVG Export Plug-In . SVG Version: 6.00 Build 0)  -->
<svg version="1.1" id="IT" xmlns="http://www.w3.org/2000/svg" xmlns:xlink="http://www.w3.org/1999/xlink" x="0px" y="0px"
	 viewBox="0 0 339.9 564.1" style="enable-background:new 0 0 339.9 564.1;" xml:space="preserve">
<style type="text/css">
	.st0{fill:#cc99ff;}
	.st1{fill:#403050;}
</style>
<path id="I" class="st0" d="M29.8,331.5l132.8-56.4c4.4-1.9,7.3-6.2,7.3-11V3c0-3.3-4.5-4.2-5.8-1.2L25.9,327.6
	C24.9,330.1,27.4,332.6,29.8,331.5L29.8,331.5z"/>
<path id="T" class="st1" d="M4.8,370.7l154.3-31.4c5.6-1.1,10.8,3.1,10.8,8.8v212.9c0,3.3,4.5,4.2,5.8,1.2l101.4-239
	c2.3-5.5,7.2-9.4,13-10.6l5.3-1.1c6.8-1.4,12.4-6,15.1-12.4l28.8-67.9c2.1-5-2.9-10-7.9-7.9L2.5,363.1C-2,365,0.1,371.7,4.8,370.7z"
	/>
</svg>
