<?xml version="1.0" encoding="UTF-8"?>
<svg id="Lager_1" data-name="Lager 1" xmlns="http://www.w3.org/2000/svg" viewBox="0 0 240.97 148.02">
  <defs>
    <style>
      .cls-1 {
        fill: #1d1d1b;
      }
    </style>
  </defs>
  <path class="cls-1" d="m64.76,72.47l-12.13-33.99-2.41-6.75H0v94.45h84.13l-19.37-53.71Zm-48.37,37.32v-61.67h22.29l6.9,19.35,3.14,8.79,11.83,33.53H16.39Z"/>
  <path class="cls-1" d="m156.84,126.18h16.98s.82,0,.82,0h49.94s1.87,0,1.87,0h14.52s0-29.96,0-29.96v-48.1s0-14.76,0-14.76v-1.63s-38.7,0-38.7,0h-11.37s-.15,0-.15,0l-2.41,6.75-12.13,33.99-19.37,53.71Zm23.58-16.39l11.83-33.53,3.14-8.79,6.9-19.35h22.29v48.1s0,13.57,0,13.57h-44.16Z"/>
  <rect class="cls-1" x="194.3" y="96.24" width="16.41" height="51.78"/>
  <path class="cls-1" d="m120.39,29.39c27.33,0,49.56,22.23,49.56,49.56s-22.23,49.56-49.56,49.56-49.56-22.23-49.56-49.56,22.23-49.56,49.56-49.56m0-16c-36.21,0-65.56,29.35-65.56,65.56s29.35,65.56,65.56,65.56,65.56-29.35,65.56-65.56S156.6,13.39,120.39,13.39h0Z"/>
  <circle class="cls-1" cx="120.39" cy="78.95" r="39.63"/>
  <polygon class="cls-1" points="160.02 28 80.76 28 90.76 0 150.02 0 160.02 28"/>
</svg>
