<?xml version="1.0" encoding="UTF-8"?><svg id="Lager_1" xmlns="http://www.w3.org/2000/svg" viewBox="0 0 240.77 166.26"><defs><style>.cls-1{fill:#1d1d1b;}</style></defs><polygon class="cls-1" points="0 130.35 34.06 35.9 49.55 35.9 49.55 75.65 67.61 35.9 84.13 35.9 84.13 130.35 67.74 130.35 67.74 71.61 55.23 97.55 38.52 97.55 38.52 71.65 17.81 130.35 0 130.35"/><polygon class="cls-1" points="92.39 35.9 92.39 130.35 149.42 130.35 149.42 35.9 133.01 35.9 133.01 113.94 108.8 113.94 108.8 35.9 92.39 35.9"/><polygon class="cls-1" points="157.03 35.9 157.03 65.19 175.77 77.77 157.03 102.68 157.03 130.35 173.42 130.35 173.42 108.48 189.31 87.18 213.82 103.98 223.35 130.35 240.77 130.35 227.73 93.93 199.09 73.91 213.48 54.13 206.84 35.9 189.81 35.9 195.26 51.87 185.66 64.68 173.48 56.45 173.48 35.9 157.03 35.9"/><rect class="cls-1" x="115.26" width="10.9" height="28.13"/><rect class="cls-1" x="115.45" y="138.13" width="10.9" height="28.13"/><rect class="cls-1" x="92.39" y="138.13" width="10.9" height="28.13"/><rect class="cls-1" x="138.52" y="138.13" width="10.9" height="28.13"/></svg>