<svg width="150" height="150" viewBox="0 0 150 150" fill="none" xmlns="http://www.w3.org/2000/svg">
    <g clip-path="url(#clip0_40_2)">
        <path
            d="M129.263 75.7629L144.466 75.8362L150 81.3716L143.359 88.0129L137.823 82.4775L124.086 80.9403L129.263 75.7629Z"
            fill="#CC99FF" />
        <path
            d="M123.223 81.8036L136.717 83.585L142.252 89.1193L135.61 95.7606L130.075 90.2263L118.046 86.9802L123.223 81.8036Z"
            fill="#CC99FF" />
        <path
            d="M117.183 87.8435L128.968 91.3331L134.503 96.8674L127.862 103.509L122.328 97.9744L112.005 93.0209L117.183 87.8435Z"
            fill="#CC99FF" />
        <path
            d="M111.142 93.8843L121.219 99.0812L126.755 104.617L120.113 111.258L114.578 105.724L105.965 99.0619L111.142 93.8843Z"
            fill="#CC99FF" />
        <path
            d="M105.102 99.9242L113.472 106.83L119.006 112.365L112.365 119.006L106.83 113.471L99.9241 105.102L105.102 99.9242Z"
            fill="#CC99FF" />
        <path
            d="M99.0622 105.964L105.724 114.578L111.258 120.114L104.617 126.755L99.0815 121.219L93.8835 111.143L99.0622 105.964Z"
            fill="#CC99FF" />
        <path
            d="M93.0209 112.005L97.9747 122.327L103.51 127.862L96.8671 134.503L91.3331 128.969L87.8435 117.183L93.0209 112.005Z"
            fill="#CC99FF" />
        <path
            d="M86.9816 118.046L90.2265 130.075L95.761 135.61L89.1194 142.251L83.5854 136.717L81.8037 123.223L86.9816 118.046Z"
            fill="#CC99FF" />
        <path
            d="M80.9405 124.086L82.4775 137.823L88.0123 143.359L81.3705 150L75.8365 144.465L75.7632 129.263L80.9405 124.086Z"
            fill="#CC99FF" />
        <path
            d="M129.263 74.2371L144.466 74.1638L150 68.6285L143.359 61.9872L137.823 67.5225L124.086 69.0598L129.263 74.2371Z"
            fill="#CC99FF" />
        <path
            d="M123.223 68.1964L136.717 66.415L142.252 60.8807L135.61 54.2394L130.075 59.7737L118.045 63.0198L123.223 68.1964Z"
            fill="#CC99FF" />
        <path
            d="M117.183 62.1564L128.969 58.6665L134.503 53.1323L127.862 46.4912L122.328 52.0255L112.005 56.979L117.183 62.1564Z"
            fill="#CC99FF" />
        <path
            d="M111.142 56.1158L121.219 50.9186L126.755 45.3832L120.113 38.7422L114.578 44.2765L105.965 50.9379L111.142 56.1158Z"
            fill="#CC99FF" />
        <path
            d="M105.101 50.0759L113.472 43.1697L119.006 37.6354L112.365 30.9944L106.83 36.5287L99.9241 44.8982L105.101 50.0759Z"
            fill="#CC99FF" />
        <path
            d="M99.0622 44.036L105.724 35.4217L111.258 29.8863L104.617 23.245L99.0816 28.7803L93.8833 38.8573L99.0622 44.036Z"
            fill="#CC99FF" />
        <path
            d="M93.0209 37.9951L97.9747 27.6724L103.51 22.1381L96.8671 15.4968L91.3331 21.0311L87.8435 32.8172L93.0209 37.9951Z"
            fill="#CC99FF" />
        <path
            d="M86.9816 31.9539L90.2265 19.9246L95.7608 14.3903L89.1194 7.74902L83.5852 13.2833L81.8037 26.7765L86.9816 31.9539Z"
            fill="#CC99FF" />
        <path
            d="M80.9403 25.9133L82.4773 12.1764L88.0124 6.64131L81.3705 0L75.8362 5.53535L75.7629 20.7367L80.9403 25.9133Z"
            fill="#CC99FF" />
        <path
            d="M20.737 75.7629L5.53429 75.8362L0 81.3716L6.64104 88.0129L12.1767 82.4775L25.9144 80.9403L20.737 75.7629Z"
            fill="#CC99FF" />
        <path
            d="M26.7769 81.8036L13.2834 83.585L7.74805 89.1193L14.3899 95.7606L19.9244 90.2263L31.9543 86.9802L26.7769 81.8036Z"
            fill="#CC99FF" />
        <path
            d="M32.8172 87.8435L21.0314 91.3331L15.4968 96.8674L22.1381 103.509L27.6722 97.9744L37.9951 93.0209L32.8172 87.8435Z"
            fill="#CC99FF" />
        <path
            d="M38.8574 93.8843L28.7805 99.0812L23.2451 104.617L29.887 111.258L35.4215 105.724L44.0345 99.0619L38.8574 93.8843Z"
            fill="#CC99FF" />
        <path
            d="M44.8983 99.9242L36.5284 106.83L30.9941 112.365L37.6357 119.006L43.1697 113.471L50.0759 105.102L44.8983 99.9242Z"
            fill="#CC99FF" />
        <path
            d="M50.9379 105.964L44.2765 114.578L38.7419 120.114L45.3833 126.755L50.9186 121.219L56.1166 111.143L50.9379 105.964Z"
            fill="#CC99FF" />
        <path
            d="M56.9791 112.005L52.0253 122.327L46.4902 127.862L53.1326 134.503L58.6669 128.969L62.1565 117.183L56.9791 112.005Z"
            fill="#CC99FF" />
        <path
            d="M63.0184 118.046L59.7736 130.075L54.239 135.61L60.8806 142.251L66.4146 136.717L68.1963 123.223L63.0184 118.046Z"
            fill="#CC99FF" />
        <path
            d="M69.0593 124.086L67.5226 137.823L61.9875 143.359L68.6294 150L74.1634 144.465L74.237 129.263L69.0593 124.086Z"
            fill="#CC99FF" />
        <path
            d="M20.7367 74.2371L5.53429 74.1638L0 68.6285L6.64131 61.9872L12.1764 67.5225L25.9144 69.0598L20.7367 74.2371Z"
            fill="#CC99FF" />
        <path
            d="M26.7766 68.1964L13.2834 66.415L7.74805 60.8807L14.3901 54.2394L19.9244 59.7737L31.9543 63.0198L26.7766 68.1964Z"
            fill="#CC99FF" />
        <path
            d="M32.8172 62.1564L21.0311 58.6665L15.4968 53.1323L22.1381 46.4912L27.6722 52.0255L37.9951 56.979L32.8172 62.1564Z"
            fill="#CC99FF" />
        <path
            d="M38.8574 56.1158L28.7805 50.9186L23.2449 45.3832L29.8872 38.7422L35.4215 44.2765L44.0348 50.9379L38.8574 56.1158Z"
            fill="#CC99FF" />
        <path
            d="M44.8983 50.0759L36.5284 43.1697L30.9941 37.6354L37.6354 30.9944L43.1697 36.5287L50.0759 44.8982L44.8983 50.0759Z"
            fill="#CC99FF" />
        <path
            d="M50.9379 44.036L44.2765 35.4217L38.7422 29.8863L45.3832 23.245L50.9186 28.7803L56.1169 38.8573L50.9379 44.036Z"
            fill="#CC99FF" />
        <path
            d="M56.9791 37.9951L52.0253 27.6724L46.4902 22.1381L53.1326 15.4968L58.6669 21.0311L62.1565 32.8172L56.9791 37.9951Z"
            fill="#CC99FF" />
        <path
            d="M63.0184 31.9539L59.7736 19.9246L54.2393 14.3903L60.8806 7.74902L66.4149 13.2833L68.1963 26.7765L63.0184 31.9539Z"
            fill="#CC99FF" />
        <path
            d="M69.0596 25.9133L67.5227 12.1764L61.9873 6.64131L68.6294 0L74.1637 5.53535L74.237 20.7367L69.0596 25.9133Z"
            fill="#CC99FF" />
        <path
            d="M75.0005 127.337C74.4102 127.337 73.8194 127.111 73.3685 126.661L23.3395 76.6311C22.4386 75.7312 22.4386 74.2694 23.3395 73.3685L68.4645 28.2435H81.5357L126.661 73.3685C127.562 74.2694 127.562 75.7312 126.661 76.6311L76.6321 126.661C76.1816 127.111 75.5915 127.337 75.0005 127.337Z"
            fill="#403050" />
        <path
            d="M99.4399 77.7196C97.9241 76.8414 82.4372 53.6674 82.4372 53.6674L60.9351 88.1082L92.9089 88.6072C92.9089 88.6072 88.5674 95.9126 88.244 96.51C87.6453 97.6168 88.3708 98.0155 88.3708 98.0155L90.9071 99.4099C90.9071 99.4099 91.876 99.9425 92.5268 98.8643C93.309 97.5689 97.2192 90.9765 97.2192 90.9765C97.2192 90.9765 100.711 92.8945 101.242 93.1882C102.415 93.8359 108.167 82.5556 107.017 81.8876C105.628 81.0806 100.849 78.5361 99.4399 77.7196Z"
            fill="#CC99FF" />
        <path
            d="M58.7042 62.8693C52.6852 72.9973 52.3008 83.8794 57.8459 87.175C63.3911 90.4702 72.7663 84.9319 78.7851 74.8031C84.8043 64.6749 85.1885 53.7925 79.6434 50.4972C74.0982 47.2018 64.7233 52.7408 58.7042 62.8693Z"
            fill="#7A5C99" />
        <path
            d="M77.2748 74.0427C78.6006 71.8112 79.6529 69.5432 80.4284 67.3278C78.9959 64.9363 76.3808 63.3345 73.3896 63.3345C68.861 63.3345 65.1899 67.0056 65.1899 71.5339C65.1899 75.9805 68.7295 79.5976 73.1441 79.7278C74.6229 78.0559 76.022 76.1504 77.2748 74.0427Z"
            fill="#CC99FF" />
        <path
            d="M47.4872 83.2739L43.3689 86.3019L49.1227 78.6377L49.7082 82.4569L53.9905 78.6751L54.5414 81.3722L58.7619 78.6219L53.1044 86.3767L52.5362 83.1185L48.2539 86.9003L47.4872 83.2739Z"
            fill="white" />
        <path
            d="M51.3293 62.8386L46.3022 61.9126L55.8272 60.8542L53.446 63.897L59.1345 64.4261L57.547 66.6751L62.4418 67.8657L52.9168 69.0563L54.9012 66.4105L49.2127 65.8813L51.3293 62.8386Z"
            fill="white" />
        <path
            d="M65.1753 48.8012L61.7252 45.0295L69.9595 49.9328L66.2247 50.9224L70.4417 54.7767L67.8188 55.6123L71.0037 59.5152L62.6896 54.7174L65.8685 53.8049L61.6514 49.9505L65.1753 48.8012Z"
            fill="white" />
    </g>
    <defs>
        <clipPath id="clip0_40_2">
            <rect width="150" height="150" fill="white" />
        </clipPath>
    </defs>
</svg>