<svg width="567" height="567" viewBox="0 0 567 567" fill="none" xmlns="http://www.w3.org/2000/svg">
    <g clip-path="url(#clip0_40_2)">
        <path
            d="M488.554 286.348L546.013 286.625L566.929 307.546L541.829 332.647L520.907 311.726L468.985 305.916L488.554 286.348Z"
            fill="#CC99FF" />
        <path
            d="M465.726 309.179L516.725 315.912L537.646 336.829L512.542 361.93L491.624 341.013L446.157 328.744L465.726 309.179Z"
            fill="#CC99FF" />
        <path
            d="M442.895 332.007L487.44 345.196L508.358 366.113L483.257 391.214L462.341 370.297L423.325 351.575L442.895 332.007Z"
            fill="#CC99FF" />
        <path
            d="M420.066 354.838L458.152 374.48L479.073 395.401L453.97 420.502L433.052 399.585L400.499 374.407L420.066 354.838Z"
            fill="#CC99FF" />
        <path
            d="M397.235 377.666L428.869 403.768L449.786 424.685L424.685 449.785L403.769 428.868L377.666 397.234L397.235 377.666Z"
            fill="#CC99FF" />
        <path
            d="M374.408 400.494L399.585 433.052L420.503 453.973L395.402 479.073L374.481 458.152L354.835 420.066L374.408 400.494Z"
            fill="#CC99FF" />
        <path
            d="M351.575 423.325L370.298 462.34L391.218 483.257L366.112 508.357L345.196 487.44L332.007 442.895L351.575 423.325Z"
            fill="#CC99FF" />
        <path
            d="M328.749 446.157L341.013 491.623L361.931 512.54L336.829 537.641L315.913 516.724L309.179 465.726L328.749 446.157Z"
            fill="#CC99FF" />
        <path
            d="M305.917 468.988L311.726 520.907L332.645 541.828L307.542 566.929L286.626 546.008L286.349 488.554L305.917 468.988Z"
            fill="#CC99FF" />
        <path
            d="M488.554 280.581L546.012 280.304L566.929 259.383L541.828 234.282L520.907 255.203L468.985 261.013L488.554 280.581Z"
            fill="#CC99FF" />
        <path
            d="M465.726 257.75L516.725 251.017L537.646 230.1L512.541 204.999L491.624 225.916L446.156 238.185L465.726 257.75Z"
            fill="#CC99FF" />
        <path
            d="M442.895 234.922L487.44 221.732L508.357 200.815L483.257 175.715L462.341 196.632L423.325 215.354L442.895 234.922Z"
            fill="#CC99FF" />
        <path
            d="M420.066 212.091L458.152 192.448L479.073 171.527L453.969 146.427L433.052 167.344L400.498 192.521L420.066 212.091Z"
            fill="#CC99FF" />
        <path
            d="M397.234 189.263L428.869 163.161L449.786 142.244L424.685 117.144L403.768 138.061L377.666 169.694L397.234 189.263Z"
            fill="#CC99FF" />
        <path
            d="M374.408 166.435L399.585 133.877L420.502 112.956L395.402 87.855L374.481 108.776L354.834 146.862L374.408 166.435Z"
            fill="#CC99FF" />
        <path
            d="M351.575 143.604L370.298 104.589L391.218 83.672L366.112 58.571L345.196 79.488L332.007 124.034L351.575 143.604Z"
            fill="#CC99FF" />
        <path
            d="M328.749 120.771L341.013 75.306L361.93 54.389L336.829 29.288L315.912 50.205L309.179 101.203L328.749 120.771Z"
            fill="#CC99FF" />
        <path d="M305.916 97.94L311.725 46.021L332.645 25.101L307.542 0L286.625 20.921L286.348 78.375L305.916 97.94Z"
            fill="#CC99FF" />
        <path d="M78.376 286.348L20.917 286.625L0 307.546L25.1 332.647L46.022 311.726L97.944 305.916L78.376 286.348Z"
            fill="#CC99FF" />
        <path
            d="M101.204 309.179L50.2051 315.912L29.2841 336.829L54.3871 361.93L75.3051 341.013L120.772 328.744L101.204 309.179Z"
            fill="#CC99FF" />
        <path
            d="M124.034 332.007L79.489 345.196L58.571 366.113L83.672 391.214L104.588 370.297L143.604 351.575L124.034 332.007Z"
            fill="#CC99FF" />
        <path
            d="M146.863 354.838L108.777 374.48L87.856 395.401L112.959 420.502L133.877 399.585L166.43 374.407L146.863 354.838Z"
            fill="#CC99FF" />
        <path
            d="M169.694 377.666L138.06 403.768L117.143 424.685L142.245 449.785L163.161 428.868L189.263 397.234L169.694 377.666Z"
            fill="#CC99FF" />
        <path
            d="M192.521 400.494L167.344 433.052L146.426 453.973L171.527 479.073L192.448 458.152L212.094 420.066L192.521 400.494Z"
            fill="#CC99FF" />
        <path
            d="M215.354 423.325L196.631 462.34L175.711 483.257L200.816 508.357L221.733 487.44L234.922 442.895L215.354 423.325Z"
            fill="#CC99FF" />
        <path
            d="M238.18 446.157L225.916 491.623L204.998 512.54L230.1 537.641L251.016 516.724L257.75 465.726L238.18 446.157Z"
            fill="#CC99FF" />
        <path
            d="M261.012 468.988L255.204 520.907L234.284 541.828L259.387 566.929L280.303 546.008L280.581 488.554L261.012 468.988Z"
            fill="#CC99FF" />
        <path d="M78.375 280.581L20.917 280.304L0 259.383L25.101 234.282L46.021 255.203L97.944 261.013L78.375 280.581Z"
            fill="#CC99FF" />
        <path
            d="M101.203 257.75L50.2051 251.017L29.2841 230.1L54.3881 204.999L75.3051 225.916L120.772 238.185L101.203 257.75Z"
            fill="#CC99FF" />
        <path
            d="M124.034 234.922L79.488 221.732L58.571 200.815L83.672 175.715L104.588 196.632L143.604 215.354L124.034 234.922Z"
            fill="#CC99FF" />
        <path
            d="M146.863 212.091L108.777 192.448L87.855 171.527L112.96 146.427L133.877 167.344L166.431 192.521L146.863 212.091Z"
            fill="#CC99FF" />
        <path
            d="M169.694 189.263L138.06 163.161L117.143 142.244L142.244 117.144L163.161 138.061L189.263 169.694L169.694 189.263Z"
            fill="#CC99FF" />
        <path
            d="M192.521 166.435L167.344 133.877L146.427 112.956L171.527 87.855L192.448 108.776L212.095 146.862L192.521 166.435Z"
            fill="#CC99FF" />
        <path
            d="M215.354 143.604L196.631 104.589L175.711 83.672L200.816 58.571L221.733 79.488L234.922 124.034L215.354 143.604Z"
            fill="#CC99FF" />
        <path
            d="M238.18 120.771L225.916 75.306L204.999 54.389L230.1 29.288L251.017 50.205L257.75 101.203L238.18 120.771Z"
            fill="#CC99FF" />
        <path d="M261.013 97.94L255.204 46.021L234.283 25.101L259.387 0L280.304 20.921L280.581 78.375L261.013 97.94Z"
            fill="#CC99FF" />
        <path
            d="M283.466 481.272C281.235 481.272 279.002 480.418 277.298 478.718L88.212 289.629C84.807 286.228 84.807 280.703 88.212 277.298L258.763 106.747H308.166L478.717 277.298C482.122 280.703 482.122 286.228 478.717 289.629L289.633 478.719C287.93 480.419 285.7 481.272 283.466 481.272Z"
            fill="#403050" />
        <path
            d="M375.835 293.743C370.106 290.424 311.573 202.837 311.573 202.837L230.305 333.007L351.151 334.893C351.151 334.893 334.742 362.504 333.52 364.762C331.257 368.945 333.999 370.452 333.999 370.452L343.585 375.722C343.585 375.722 347.247 377.735 349.707 373.66C352.663 368.764 367.442 343.848 367.442 343.848C367.442 343.848 380.64 351.097 382.648 352.207C387.078 354.655 408.82 312.021 404.473 309.496C399.223 306.446 381.161 296.829 375.835 293.743Z"
            fill="#CC99FF" />
        <path
            d="M221.874 237.616C199.125 275.895 197.672 317.024 218.63 329.48C239.588 341.934 275.022 321.002 297.77 282.72C320.52 244.44 321.972 203.31 301.014 190.855C280.056 178.4 244.623 199.335 221.874 237.616Z"
            fill="#7A5C99" />
        <path
            d="M292.062 279.846C297.073 271.412 301.05 262.84 303.981 254.467C298.567 245.428 288.683 239.374 277.378 239.374C260.262 239.374 246.387 253.249 246.387 270.364C246.387 287.17 259.765 300.841 276.45 301.333C282.039 295.014 287.327 287.812 292.062 279.846Z"
            fill="#CC99FF" />
        <path
            d="M179.479 314.736L163.914 326.18L185.661 297.213L187.874 311.648L204.059 297.354L206.141 307.548L222.092 297.153L200.71 326.463L198.562 314.148L182.377 328.442L179.479 314.736Z"
            fill="white" />
        <path
            d="M194 237.5L175 234L211 230L202 241.5L223.5 243.5L217.5 252L236 256.5L200 261L207.5 251L186 249L194 237.5Z"
            fill="white" />
        <path
            d="M246.331 184.445L233.291 170.19L264.413 188.722L250.297 192.462L266.236 207.03L256.322 210.188L268.36 224.939L236.936 206.806L248.951 203.356L233.013 188.789L246.331 184.445Z"
            fill="white" />
    </g>
    <defs>
        <clipPath id="clip0_40_2">
            <rect width="566.929" height="566.929" fill="white" />
        </clipPath>
    </defs>
</svg>